#!OML:ASF F:\VICON\USERDATA\INSTALL\Justin_Nancy\Justin_Nancy.ASF
:FULLY-SPECIFIED
:DEGREES
79
root 9.64012 17.4126 -13.1375 1.17636 -19.9197 0.153154
lowerback 7.30765 -3.14545 -1.08814
upperback -0.634558 -4.1185 4.09463
thorax -4.37585 -1.97762 5.32741
lowerneck -12.8842 -2.05087 -10.1947
upperneck 22.2839 -1.83451 5.05593
head 9.2802 -1.20587 3.23735
rclavicle -2.93207e-014 -4.92986e-014
rhumerus -43.8749 -13.1735 -70.4299
rradius 48.4212
rwrist -1.57289
rhand -15.8169 9.47909
rfingers 7.12502
rthumb 10.3768 -20.2449
lclavicle -2.93207e-014 -4.92986e-014
lhumerus -32.6178 17.7521 79.0757
lradius 26.2531
lwrist -12.1639
lhand -16.5942 23.8608
lfingers 7.12502
lthumb 9.62685 53.6209
rfemur -8.98137 11.0863 33.3001
rtibia 24.2226
rfoot -9.69327 5.07933
rtoes 11.1897
lfemur -27.6556 -1.55352 -12.4345
ltibia 66.325
lfoot -2.40394 -0.940019
ltoes -8.34029
80
root 9.60165 17.4036 -12.9209 1.30451 -21.0565 0.192557
lowerback 7.13162 -3.08269 -0.972073
upperback -0.575751 -4.03002 4.05372
thorax -4.23469 -1.94091 5.19412
lowerneck -12.5671 -1.99018 -10.3907
upperneck 21.9588 -1.72863 5.02664
head 9.10175 -1.1729 3.26641
rclavicle -5.09883e-014 1.43125e-014
rhumerus -43.293 -12.6101 -70.711
rradius 48.99
rwrist -2.64109
rhand -15.58 10.3353
rfingers 7.12502
rthumb 10.6053 -19.3771
lclavicle -5.09883e-014 1.43125e-014
lhumerus -32.9078 17.9182 79.086
lradius 26.0651
lwrist -12.1753
lhand -16.0373 25.837
lfingers 7.12502
lthumb 10.1642 55.5715
rfemur -8.0449 10.5114 33.4792
rtibia 24.0494
rfoot -10.548 4.51711
rtoes 11.5817
lfemur -28.717 -1.65723 -12.4854
ltibia 65.1792
lfoot -3.53152 0.000124211
ltoes -8.14257
81
root 9.55952 17.3897 -12.7078 1.42876 -22.2125 -0.115167
lowerback 7.18162 -3.09521 -0.665683
upperback -0.608987 -4.01286 4.23519
thorax -4.30737 -1.93645 5.21638
lowerneck -11.9681 -1.82281 -11.0384
upperneck 21.564 -1.45472 5.183
head 8.83918 -1.07994 3.45253
rclavicle -2.97183e-014 -2.70347e-014
rhumerus -42.8999 -11.6039 -70.7708
rradius 49.5721
rwrist -3.48686
rhand -15.1205 10.6327
rfingers 7.12502
rthumb 11.0485 -19.0565
lclavicle -2.97183e-014 -2.70347e-014
lhumerus -33.4507 18.6127 78.9492
lradius 25.7603
lwrist -12.1401
lhand -16.3296 25.6943
lfingers 7.12502
lthumb 9.88216 55.4423
rfemur -7.03245 10.005 34.0459
rtibia 23.9508
rfoot -11.3727 3.84124
rtoes 14.8598
lfemur -29.5408 -1.72267 -12.1376
ltibia 63.836
lfoot -5.09359 1.48327
ltoes -10.3141
82
root 9.51078 17.3708 -12.499 1.60514 -23.475 -0.38285
lowerback 7.3142 -2.98141 -0.535995
upperback -0.683121 -3.83797 4.45082
thorax -4.46975 -1.84694 5.36715
lowerneck -12.0333 -1.79845 -11.3276
upperneck 21.517 -1.30447 4.97758
head 8.82662 -1.05287 3.44514
rclavicle 9.46215e-014 -3.18055e-014
rhumerus -42.69 -10.5146 -70.8316
rradius 50.3285
rwrist -4.18407
rhand -15.0194 10.7197
rfingers 7.12502
rthumb 11.146 -18.9643
lclavicle 9.46215e-014 -3.18055e-014
lhumerus -34.1744 19.5445 78.7855
lradius 25.6475
lwrist -12.5638
lhand -16.6935 25.5125
lfingers 7.12502
lthumb 9.5311 55.277
rfemur -6.02853 9.65454 34.6016
rtibia 23.7147
rfoot -11.8747 3.00141
rtoes 17.3531
lfemur -30.2819 -1.48062 -11.827
ltibia 62.3397
lfoot -6.365 2.77134
ltoes -11.5982
83
root 9.4647 17.3437 -12.2872 1.84723 -24.7004 -0.541246
lowerback 7.4278 -2.86422 -0.489489
upperback -0.777278 -3.66696 4.60888
thorax -4.64132 -1.75731 5.50383
lowerneck -12.177 -1.76664 -11.4598
upperneck 21.5118 -1.16724 4.76905
head 8.84202 -1.01983 3.40993
rclavicle 1.01877e-013 -1.59028e-015
rhumerus -42.4443 -9.46125 -70.9825
rradius 51.01
rwrist -4.47324
rhand -15.1468 10.8347
rfingers 7.12502
rthumb 11.0232 -18.8559
lclavicle 1.01877e-013 -1.59028e-015
lhumerus -34.7712 20.2972 78.6021
lradius 25.4504
lwrist -13.1398
lhand -16.5261 25.9036
lfingers 7.12502
lthumb 9.6926 55.6606
rfemur -5.01262 9.40592 35.0234
rtibia 23.2859
rfoot -12.1221 2.01276
rtoes 17.6362
lfemur -31.0684 -1.15103 -11.6232
ltibia 60.6858
lfoot -6.69081 3.47045
ltoes -9.83741
84
root 9.41869 17.3176 -12.0716 2.15999 -25.7237 -0.622205
lowerback 7.28145 -2.79668 -0.274842
upperback -0.742237 -3.56346 4.57862
thorax -4.54683 -1.71424 5.32771
lowerneck -12.7623 -1.67796 -11.3982
upperneck 21.6015 -0.995364 4.82884
head 8.96455 -0.924342 3.4428
rclavicle -3.90612e-014 9.54166e-015
rhumerus -41.8751 -8.80948 -71.3491
rradius 51.508
rwrist -4.7981
rhand -15.0466 10.8419
rfingers 7.12502
rthumb 11.1198 -18.8435
lclavicle -3.90612e-014 9.54166e-015
lhumerus -34.862 20.8488 78.3226
lradius 24.9997
lwrist -13.6245
lhand -16.2984 25.9961
lfingers 7.12502
lthumb 9.91228 55.7427
rfemur -4.0024 9.2617 35.3633
rtibia 22.7384
rfoot -12.2275 0.677389
rtoes 17.1568
lfemur -31.9731 -1.08943 -11.4623
ltibia 58.8441
lfoot -6.8878 4.09827
ltoes -7.73889
85
root 9.36926 17.3061 -11.856 2.5974 -26.842 -0.765546
lowerback 6.9755 -2.60326 0.130594
upperback -0.667181 -3.28408 4.47778
thorax -4.34965 -1.59071 4.93999
lowerneck -13.1543 -1.70769 -11.3931
upperneck 21.4301 -1.00657 4.93543
head 8.97862 -0.908018 3.47568
rclavicle -3.42904e-014 -3.02153e-014
rhumerus -41.3192 -8.49639 -71.6633
rradius 52.011
rwrist -5.00401
rhand -14.8883 10.7437
rfingers 7.12502
rthumb 11.2725 -18.9334
lclavicle -3.42904e-014 -3.02153e-014
lhumerus -35.0331 20.8761 78.287
lradius 25.0706
lwrist -13.7454
lhand -16.0857 26.3993
lfingers 7.12502
lthumb 10.1175 56.1361
rfemur -3.04159 9.17141 35.6952
rtibia 22.1196
rfoot -12.3131 -0.365643
rtoes 16.599
lfemur -32.8294 -1.09305 -11.2287
ltibia 56.826
lfoot -7.1915 4.94993
ltoes -7.34215
86
root 9.31496 17.2968 -11.6451 2.94048 -28.165 -0.847971
lowerback 6.79868 -2.23988 0.498289
upperback -0.591536 -2.78285 4.27981
thorax -4.23887 -1.35397 4.46041
lowerneck -13.5607 -1.93176 -11.3951
upperneck 21.337 -1.29815 5.09058
head 9.04841 -1.02046 3.49562
rclavicle -6.88789e-014 1.11319e-014
rhumerus -40.8739 -8.40314 -72.0173
rradius 52.4517
rwrist -4.78309
rhand -15.0698 10.5985
rfingers 7.12502
rthumb 11.0975 -19.088
lclavicle -6.88789e-014 1.11319e-014
lhumerus -35.0862 20.9911 78.1405
lradius 24.98
lwrist -14.1512
lhand -16.42 26.0137
lfingers 7.12502
lthumb 9.79492 55.7659
rfemur -2.02983 9.00997 35.9181
rtibia 21.4861
rfoot -12.7055 -1.15672
rtoes 14.696
lfemur -33.375 -0.900687 -11.0682
ltibia 54.6205
lfoot -7.345 5.82672
ltoes -7.84958
87
root 9.26323 17.2705 -11.441 3.32198 -29.4294 -1.00105
lowerback 6.72046 -1.84794 0.85416
upperback -0.492334 -2.24297 4.1064
thorax -4.15012 -1.09679 4.01627
lowerneck -14.3243 -2.2197 -11.1883
upperneck 21.3897 -1.65109 5.09538
head 9.23858 -1.15974 3.42275
rclavicle 1.46107e-014 -9.54166e-015
rhumerus -40.3301 -8.39075 -72.3871
rradius 52.8059
rwrist -4.38805
rhand -15.2492 10.576
rfingers 7.12502
rthumb 10.9244 -19.1198
lclavicle 1.46107e-014 -9.54166e-015
lhumerus -34.7955 20.9172 78.1144
lradius 24.7566
lwrist -14.0904
lhand -16.4553 26.1443
lfingers 7.12502
lthumb 9.76094 55.8981
rfemur -1.12597 8.72109 36.1612
rtibia 20.9626
rfoot -13.2078 -1.74396
rtoes 13.7532
lfemur -33.8892 -0.631779 -10.7964
ltibia 52.2798
lfoot -7.5778 6.50063
ltoes -7.09274
88
root 9.21178 17.2338 -11.2343 3.78414 -30.5857 -1.1626
lowerback 6.62851 -1.51588 1.0889
upperback -0.429167 -1.79056 4.00329
thorax -4.07065 -0.87914 3.7251
lowerneck -15.3491 -2.39789 -10.7681
upperneck 21.7287 -1.85128 4.96009
head 9.56006 -1.22941 3.28659
rclavicle 1.07443e-013 -1.51076e-014
rhumerus -39.8366 -8.28007 -72.6524
rradius 53.1756
rwrist -4.06707
rhand -15.2508 10.8681
rfingers 7.12502
rthumb 10.9229 -18.8278
lclavicle 1.07443e-013 -1.51076e-014
lhumerus -34.5415 20.8263 78.1677
lradius 24.5618
lwrist -13.8016
lhand -15.9608 27.1268
lfingers 7.12502
lthumb 10.238 56.8576
rfemur -0.33914 8.40884 36.3576
rtibia 20.4761
rfoot -13.488 -2.40946
rtoes 13.3612
lfemur -34.3068 -0.529602 -10.4225
ltibia 49.6923
lfoot -8.10108 7.01004
ltoes -2.16326
